<svg xmlns="http://www.w3.org/2000/svg" viewBox="0 0 35.06 35.16"><defs><style>.cls-1{fill:#2390c9;}</style></defs><g id="Capa_2" data-name="Capa 2"><g id="Capa_1-2" data-name="Capa 1"><path class="cls-1" d="M14.55,15c0,.17.1.39,0,.49-.25.34-.52.82-.87.91s-.82-.32-1-.64a4.06,4.06,0,0,1,1.32-4.38c2.52-2.18,6.33-1.73,7.75.89a4.62,4.62,0,0,1-.1,5.15,25.65,25.65,0,0,1-2,2.28c-.56.64-1.11,1.27-1.64,1.93-.33.4-.69.67-1.21.43a.89.89,0,0,1-.51-1.3,12.87,12.87,0,0,1,1.52-2c.64-.72,1.39-1.34,2-2.06a2.83,2.83,0,0,0,.46-3c-.52-1.41-1.87-2-3.64-1.56A2.66,2.66,0,0,0,14.55,15Z"/><path class="cls-1" d="M17.05,25.05c-.6,0-.89-.3-.9-.87a.78.78,0,0,1,.87-.87.76.76,0,0,1,.83.82A.81.81,0,0,1,17.05,25.05Z"/><path class="cls-1" d="M33.73,10.91A17.39,17.39,0,0,0,12.56.73,17.28,17.28,0,0,0,.08,16,16.92,16.92,0,0,0,3.45,27.9a1,1,0,0,1,.11,1.2c-.63,1.34-1.23,2.7-1.76,4.09a1.94,1.94,0,0,0,0,1.44c.33.57,1,.31,1.5.12,1.63-.58,3.27-1.14,4.89-1.76a1.55,1.55,0,0,1,1.39.09,19.44,19.44,0,0,0,8,2.08c1.54-.27,3.11-.43,4.61-.82A17.43,17.43,0,0,0,33.73,10.91ZM21,32.69A15.19,15.19,0,0,1,9.8,31a1.67,1.67,0,0,0-1.89,0,24.16,24.16,0,0,1-3.35,1.29l-.17-.19c.41-1,.8-1.92,1.25-2.86a1.62,1.62,0,0,0-.23-1.95A15.54,15.54,0,1,1,21,32.69Z"/></g></g></svg>