<svg xmlns="http://www.w3.org/2000/svg" viewBox="0 0 41.64 33.5"><defs><style>.cls-1{fill:none;}.cls-2{fill:#2390c9;}</style></defs><g id="Capa_2" data-name="Capa 2"><g id="Capa_1-2" data-name="Capa 1"><rect class="cls-1" x="1.7" y="1.72" width="38.24" height="20.92" rx="0.55"/><rect class="cls-1" x="1.7" y="1.72" width="38.24" height="20.92" rx="0.55"/><rect class="cls-1" x="1.7" y="1.72" width="38.24" height="20.92" rx="0.55"/><rect class="cls-1" x="1.7" y="1.72" width="38.24" height="20.92" rx="0.55"/><path class="cls-2" d="M39.61,0H2A2,2,0,0,0,0,2v20.3a2,2,0,0,0,2,2H39.61a2,2,0,0,0,2-2V2A2,2,0,0,0,39.61,0Zm.33,22.09a.55.55,0,0,1-.55.55H2.25a.55.55,0,0,1-.55-.55V2.27a.55.55,0,0,1,.55-.55H39.39a.55.55,0,0,1,.55.55Z"/><path class="cls-1" d="M20.82,28.43a1.67,1.67,0,0,0-1.48.89h3A1.68,1.68,0,0,0,20.82,28.43Z"/><path class="cls-1" d="M20.82,31.8a1.69,1.69,0,0,0,1.49-.9h-3A1.68,1.68,0,0,0,20.82,31.8Z"/><path class="cls-2" d="M40.91,29.32H24.11a3.49,3.49,0,0,1,.1.79,3.42,3.42,0,0,1-.1.79h16.8a.71.71,0,0,0,.71-.71V30A.71.71,0,0,0,40.91,29.32Z"/><path class="cls-2" d="M17.53,29.32H.73A.71.71,0,0,0,0,30v.16a.71.71,0,0,0,.71.71h16.8a3.42,3.42,0,0,1-.09-.79A3.48,3.48,0,0,1,17.53,29.32Z"/><path class="cls-2" d="M20.82,31.8a1.68,1.68,0,0,1-1.48-.9H17.53a3.38,3.38,0,0,0,6.58,0h-1.8A1.69,1.69,0,0,1,20.82,31.8Z"/><path class="cls-2" d="M20.82,28.43a1.68,1.68,0,0,1,1.49.89h1.8a3.38,3.38,0,0,0-6.58,0h1.81A1.67,1.67,0,0,1,20.82,28.43Z"/><path class="cls-2" d="M19.14,30.11a1.66,1.66,0,0,1,.2-.79H17.53a3.48,3.48,0,0,0-.09.79,3.42,3.42,0,0,0,.09.79h1.81A1.6,1.6,0,0,1,19.14,30.11Z"/><path class="cls-2" d="M24.11,29.32h-1.8a1.78,1.78,0,0,1,.2.79,1.71,1.71,0,0,1-.2.79h1.8a3.42,3.42,0,0,0,.1-.79A3.49,3.49,0,0,0,24.11,29.32Z"/><path class="cls-2" d="M26.52,11.24l-7.46-5.3c-.36-.25-.71-.51-1.18-.26s-.49.67-.49,1.11c0,1.8,0,3.6,0,5.4s0,3.6,0,5.4c0,.45.05.87.51,1.1s.78,0,1.13-.25l7.46-5.3C27.45,12.45,27.47,11.92,26.52,11.24ZM19.16,8.12l5.72,4.06-5.72,4.07Z"/></g></g></svg>